<?xml version="1.0" encoding="UTF-8"?>
<svg id="Adrien" xmlns="http://www.w3.org/2000/svg" viewBox="0 0 400 400">
  <defs>
    <style>
      .cls-1 {
        fill: #fbc597;
      }

      .cls-2 {
        fill: none;
        stroke: #996117;
        stroke-miterlimit: 10;
        stroke-width: 3px;
      }

      .cls-3 {
        fill: #603d21;
      }

      .cls-4 {
        fill: #fd989f;
      }
    </style>
  </defs>
  <path id="CheveuxCotes" class="cls-3" d="m139.23,132.32h137.53c15.03,0,27.23,12.2,27.23,27.23v19.65c0,12.85-10.43,23.28-23.28,23.28h-145.45c-12.85,0-23.28-10.43-23.28-23.28v-19.65c0-15.03,12.2-27.23,27.23-27.23Z"/>
  <g id="OreilleD">
    <path class="cls-1" d="m287,227.07c.1,0,.21,0,.33,0,12.57,0,22.76-10.19,22.76-22.76,0-12.57-10.19-22.76-22.76-22.76-.11,0-.22,0-.33,0v12.36s0,20.8,0,20.8v12.36Z"/>
    <path class="cls-4" d="m287,193.92c.1,0,.21,0,.33,0,5.75,0,10.4,4.66,10.4,10.4,0,5.75-4.66,10.4-10.4,10.4-.11,0-.22,0-.33,0v-20.8Z"/>
  </g>
  <g id="OreilleG">
    <path class="cls-1" d="m129,216.72v-33.15c-.1,0-.21,0-.33,0-12.57,0-22.76,10.19-22.76,22.76s10.19,22.76,22.76,22.76c.11,0,.22,0,.33,0v-12.36Z"/>
    <path class="cls-4" d="m129,216.72c-.1,0-.21,0-.33,0-5.75,0-10.4-4.66-10.4-10.4s4.66-10.4,10.4-10.4c.11,0,.22,0,.33,0v20.8Z"/>
  </g>
  <path id="Visage" class="cls-1" d="m172.52,103.73h70.42c24.57,0,44.52,19.95,44.52,44.52v98.1c0,37.89-30.76,68.65-68.65,68.65h-22.15c-37.89,0-68.65-30.76-68.65-68.65v-98.1c0-24.57,19.95-44.52,44.52-44.52Z"/>
  <g id="Cheveux">
    <path class="cls-3" d="m144.88,99h126.24c12.07,0,21.88,9.8,21.88,21.88v13.63c0,12.76-10.36,23.12-23.12,23.12h-123.77c-12.76,0-23.12-10.36-23.12-23.12v-13.63c0-12.07,9.8-21.88,21.88-21.88Z" transform="translate(416 256.62) rotate(180)"/>
    <path class="cls-2" d="m283.47,128.78h0c0-11.97-8.63-21.77-19.19-21.77"/>
  </g>
  <g id="OeilG">
    <circle cx="179.24" cy="198.07" r="7.86"/>
    <rect class="cls-3" x="152.81" y="175.14" width="44.29" height="12.22" rx="4" ry="4"/>
  </g>
  <g id="OeilD">
    <circle cx="236.12" cy="197.69" r="7.86"/>
    <rect class="cls-3" x="218.26" y="174.75" width="44.29" height="12.22" rx="4" ry="4" transform="translate(480.81 361.73) rotate(-180)"/>
  </g>
  <g id="Nez">
    <path class="cls-4" d="m212.99,248h-10.98c-2.77,0-5.01-2.24-5.01-5.01v-22.49c0-5.8,4.7-10.5,10.5-10.5h0c5.8,0,10.5,4.7,10.5,10.5v22.49c0,2.77-2.24,5.01-5.01,5.01Z"/>
  </g>
  <path id="Bouche" class="cls-4" d="m208.1,274.7c-3.48-.34-30.64-2.77-27.9,4.06,3.01,7.53,25.64,7.47,27.9,7.44,2.26.03,24.89.09,27.9-7.44,2.73-6.83-24.43-4.4-27.9-4.06Z"/>
</svg>