<?xml version="1.0" encoding="UTF-8"?>
<svg id="Chloe" xmlns="http://www.w3.org/2000/svg" viewBox="0 0 400 400">
  <defs>
    <style>
      .cls-1 {
        stroke: #e2004e;
      }

      .cls-1, .cls-2 {
        fill: none;
        stroke-miterlimit: 10;
      }

      .cls-3 {
        fill: #fbc597;
      }

      .cls-2 {
        stroke: #996117;
        stroke-width: 3px;
      }

      .cls-4 {
        fill: #603d21;
      }

      .cls-5 {
        fill: #fd989f;
      }

      .cls-6 {
        fill: #fdac89;
      }
    </style>
  </defs>
  <g id="CheveuxArriere">
    <path class="cls-4" d="m200.5,71h0c51.05,0,92.5,41.45,92.5,92.5v138.21c0,8.99-7.3,16.29-16.29,16.29H124.29c-8.99,0-16.29-7.3-16.29-16.29v-138.21c0-51.05,41.45-92.5,92.5-92.5Z"/>
    <path class="cls-2" d="m142.25,306.2h0c-14.14,0-25.71-11.57-25.71-25.71"/>
  </g>
  <g id="OreilleD">
    <path class="cls-3" d="m270,220.2c.1,0,.21,0,.33,0,12.57,0,22.76-10.19,22.76-22.76,0-12.57-10.19-22.76-22.76-22.76-.11,0-.22,0-.33,0v12.36s0,20.8,0,20.8v12.36Z"/>
    <path class="cls-5" d="m270,187.05c.1,0,.21,0,.33,0,5.75,0,10.4,4.66,10.4,10.4,0,5.75-4.66,10.4-10.4,10.4-.11,0-.22,0-.33,0v-20.8Z"/>
  </g>
  <g id="OreilleG">
    <path class="cls-3" d="m130,207.84v-33.15c-.1,0-.21,0-.33,0-12.57,0-22.76,10.19-22.76,22.76s10.19,22.76,22.76,22.76c.11,0,.22,0,.33,0v-12.36Z"/>
    <path class="cls-5" d="m130,207.84c-.1,0-.21,0-.33,0-5.75,0-10.4-4.66-10.4-10.4s4.66-10.4,10.4-10.4c.11,0,.22,0,.33,0v20.8Z"/>
  </g>
  <path id="Visage" class="cls-3" d="m181,101h38c28.7,0,52,23.3,52,52v67.3c0,39.02-31.68,70.7-70.7,70.7h-.6c-39.02,0-70.7-31.68-70.7-70.7v-67.3c0-28.7,23.3-52,52-52Z"/>
  <g id="Frange">
    <rect class="cls-4" x="138" y="96" width="124" height="55" rx="12" ry="12"/>
    <path class="cls-2" d="m237.86,101.2h0c7.08,0,12.88,5.79,12.88,12.88"/>
  </g>
  <g id="Bouche">
    <rect class="cls-5" x="187" y="247" width="26" height="8" rx="4" ry="4"/>
    <rect class="cls-5" x="187" y="256" width="26" height="8" rx="4" ry="4"/>
    <line class="cls-1" x1="190.5" y1="255.5" x2="209.5" y2="255.5"/>
  </g>
  <g id="Nez">
    <circle class="cls-6" cx="193.5" cy="215.5" r="3.5"/>
    <circle class="cls-6" cx="207.5" cy="215.5" r="3.5"/>
  </g>
  <g id="Blush">
    <circle class="cls-6" cx="153.5" cy="229.5" r="13.5"/>
    <circle class="cls-6" cx="245.5" cy="229.5" r="13.5"/>
  </g>
  <g id="Yeux">
    <circle cx="158.64" cy="186.51" r="7.86"/>
    <circle cx="240.64" cy="186.51" r="7.86"/>
  </g>
</svg>