<?xml version="1.0" encoding="UTF-8"?>
<svg id="Emma" xmlns="http://www.w3.org/2000/svg" viewBox="0 0 400 400">
  <defs>
    <style>
      .cls-1 {
        fill: #fbc597;
      }

      .cls-2 {
        fill: #f0eabd;
      }

      .cls-3 {
        fill: #603d21;
      }

      .cls-4 {
        stroke: #faffcd;
      }

      .cls-4, .cls-5 {
        fill: none;
      }

      .cls-4, .cls-5, .cls-6 {
        stroke-miterlimit: 10;
        stroke-width: 3px;
      }

      .cls-7 {
        fill: #fd989f;
      }

      .cls-8 {
        fill: #fdac89;
      }

      .cls-5, .cls-6 {
        stroke: #ae8420;
      }

      .cls-6 {
        fill: #fff;
      }
    </style>
  </defs>
  <g id="Cheveux">
    <path class="cls-3" d="m289.5,168.18v92.45c0,20.83-17.04,37.87-37.87,37.87h-99.26c-20.83,0-37.87-17.04-37.87-37.87v-92.45c0-46.57,38.11-84.68,84.68-84.68h5.64c46.57,0,84.68,38.11,84.68,84.68Z"/>
    <path class="cls-2" d="m289.5,232v35.97c0,16.79-17.04,30.53-37.87,30.53h-99.26c-20.83,0-37.87-13.74-37.87-30.53v-35.96c.17-.02.33-.02.5-.02h174.5Z"/>
    <path class="cls-4" d="m143.08,286.26h0c-10.49,0-19.08-8.58-19.08-19.08"/>
  </g>
  <path id="Visage" class="cls-1" d="m197.5,106.33h8c30.08,0,54.5,24.42,54.5,54.5v75.13c0,22.65-18.39,41.04-41.04,41.04h-34.91c-22.65,0-41.04-18.39-41.04-41.04v-75.13c0-30.08,24.42-54.5,54.5-54.5Z"/>
  <g id="Lunettes">
    <path class="cls-5" d="m195.5,174.25c0,5.84-2.38,11.16-6.24,15.01-3.85,3.85-9.17,6.24-15.01,6.24-9.57,0-17.71-6.4-20.34-15.13-.59-1.94-.91-4-.91-6.12v-21.25h21.25c.51,0,1.02.02,1.51.07,10.99.77,19.74,10,19.74,21.18Z"/>
    <path class="cls-5" d="m248.49,153v21.25c0,11.69-9.56,21.25-21.25,21.25-5.84,0-11.16-2.38-15.01-6.24-1.02-1.02-1.93-2.14-2.73-3.34-2.22-3.36-3.51-7.37-3.51-11.67,0-11.69,9.56-21.25,21.25-21.25h21.25Z"/>
    <path class="cls-6" d="m153.91,180.37c-.59-1.94-.91-4-.91-6.12v-21.25h21.25c.51,0,1.02.02,1.51.07"/>
    <path class="cls-6" d="m209.5,185.92c-2.22-3.36-3.51-7.37-3.51-11.67,0-11.69,9.56-21.25,21.25-21.25h6.01"/>
    <line class="cls-5" x1="211.35" y1="160.18" x2="190.14" y2="160.18"/>
  </g>
  <g id="Blush">
    <circle class="cls-8" cx="162.5" cy="219.5" r="13.5"/>
    <circle class="cls-8" cx="238.5" cy="219.5" r="13.5"/>
  </g>
  <g id="Nez">
    <circle class="cls-8" cx="194.5" cy="211.5" r="3.5"/>
    <circle class="cls-8" cx="208.5" cy="211.5" r="3.5"/>
  </g>
  <g id="Bouche">
    <path class="cls-7" d="m218.37,249.89c-2.31,6.43-9.37,11.11-17.74,11.11s-15.43-4.68-17.74-11.11c1.61,1.92,5.49,3.32,10.09,3.43.2.01.41.01.62.01.2,0,.4,0,.59-.01,2.42-.1,4.65-.8,6.44-1.92,1.8,1.12,4.02,1.83,6.44,1.92.19.01.39.01.59.01.21,0,.42,0,.62-.01,4.6-.11,8.48-1.5,10.09-3.43Z"/>
    <path class="cls-7" d="m219,247.42c-.13.85-.35,1.67-.63,2.47-1.61,1.92-5.49,3.32-10.09,3.43-.2.01-.41.01-.62.01-.2,0-.4,0-.59-.01-2.42-.1-4.65-.8-6.44-1.92-1.8,1.12-4.02,1.83-6.44,1.92-.19.01-.39.01-.59.01-.21,0-.42,0-.62-.01-4.6-.11-8.48-1.5-10.09-3.43-.29-.79-.5-1.62-.63-2.47.07-.27.17-.53.28-.79h0c.14-.32.31-.62.52-.91,1.77-1.92,5.82-3.26,10.54-3.26,2.65,0,5.09.42,7.03,1.14,1.94-.72,4.38-1.14,7.03-1.14,4.72,0,8.77,1.34,10.54,3.26.2.29.38.59.52.91h0c.12.26.21.52.28.79Z"/>
  </g>
  <g id="Yeux">
    <rect x="169" y="166" width="11" height="17" rx="5.5" ry="5.5"/>
    <rect x="222" y="166" width="11" height="17" rx="5.5" ry="5.5"/>
  </g>
</svg>