<?xml version="1.0" encoding="UTF-8"?>
<svg id="Kylian" xmlns="http://www.w3.org/2000/svg" viewBox="0 0 400 400">
  <defs>
    <style>
      .cls-1 {
        fill: #fff;
      }

      .cls-2 {
        stroke: #603d21;
      }

      .cls-2, .cls-3, .cls-4 {
        fill: none;
        stroke-miterlimit: 10;
        stroke-width: 3px;
      }

      .cls-5 {
        fill: #fbc597;
      }

      .cls-3 {
        stroke: #000;
      }

      .cls-6 {
        fill: #fd989f;
      }

      .cls-4 {
        stroke: #9d968c;
      }

      .cls-7 {
        fill: #e2004e;
      }
    </style>
  </defs>
  <g id="OreilleD">
    <path class="cls-5" d="m267,207.03c.1,0,.21,0,.33,0,12.57,0,22.76-10.19,22.76-22.76,0-12.57-10.19-22.76-22.76-22.76-.11,0-.22,0-.33,0v12.36s0,20.8,0,20.8v12.36Z"/>
    <path class="cls-6" d="m267,173.88c.1,0,.21,0,.33,0,5.75,0,10.4,4.66,10.4,10.4,0,5.75-4.66,10.4-10.4,10.4-.11,0-.22,0-.33,0v-20.8Z"/>
  </g>
  <g id="OreilleG">
    <path class="cls-5" d="m127,194.67v-33.15c-.1,0-.21,0-.33,0-12.57,0-22.76,10.19-22.76,22.76s10.19,22.76,22.76,22.76c.11,0,.22,0,.33,0v-12.36Z"/>
    <path class="cls-6" d="m127,194.67c-.1,0-.21,0-.33,0-5.75,0-10.4-4.66-10.4-10.4s4.66-10.4,10.4-10.4c.11,0,.22,0,.33,0v20.8Z"/>
  </g>
  <g id="Visage">
    <path class="cls-5" d="m199.82,303h-5.64c-37.5,0-68.18-30.68-68.18-68.18v-71.99c0-27.96,22.87-50.83,50.83-50.83h40.34c27.96,0,50.83,22.87,50.83,50.83v71.99c0,37.5-30.68,68.18-68.18,68.18Z"/>
  </g>
  <g id="Cheveux">
    <circle cx="123.5" cy="144.5" r="24.5"/>
    <circle cx="265.5" cy="127.5" r="24.5"/>
    <circle cx="272" cy="149" r="17"/>
    <circle cx="132" cy="119" r="19"/>
    <circle cx="234" cy="102" r="26"/>
    <circle cx="265.5" cy="98.5" r="17.5"/>
    <circle cx="196" cy="82" r="36"/>
    <circle cx="229" cy="73" r="17"/>
    <circle cx="250.5" cy="80.5" r="9.5"/>
    <circle cx="158.5" cy="100.5" r="23.5"/>
    <circle cx="160.5" cy="72.5" r="10.5"/>
    <path class="cls-4" d="m173.6,67.85h0c6.84-12.38,22.57-16.91,34.95-10.06"/>
    <path class="cls-4" d="m177.2,93.01h0c2.7-6.09,10.2-8.72,16.68-5.85"/>
    <path class="cls-4" d="m142.79,102.58h0c0-9.04,7.39-16.43,16.43-16.43"/>
  </g>
  <g id="Lunettes">
    <path class="cls-1" d="m171.72,163.1l-29.1,37.15c-.86-1.43-1.57-2.95-2.14-4.55-.93-2.63-1.44-5.46-1.44-8.41,0-10.84,6.82-20.09,16.4-23.68,2.77-1.04,5.77-1.61,8.91-1.61,2.56,0,5.04.38,7.37,1.1Z"/>
    <path class="cls-1" d="m234.44,162.43l-27.69,35.36c-.32-.69-.61-1.4-.86-2.13-.92-2.62-1.41-5.43-1.41-8.37,0-10.82,6.79-20.06,16.35-23.67,2.78-1.05,5.8-1.63,8.95-1.63,1.59,0,3.16.15,4.66.43Z"/>
    <path class="cls-2" d="m189.65,187.29c0,4.2-1.02,8.17-2.83,11.65-4.22,8.11-12.7,13.65-22.46,13.65-4.95,0-9.57-1.42-13.47-3.88-3.38-2.13-6.22-5.03-8.26-8.47-.86-1.43-1.57-2.95-2.14-4.55-.93-2.63-1.44-5.46-1.44-8.41,0-10.84,6.82-20.09,16.4-23.68,2.77-1.04,5.77-1.61,8.91-1.61,2.56,0,5.04.38,7.37,1.1.13.04.26.08.38.12,5.68,1.82,10.47,5.59,13.61,10.52.68,1.06,1.28,2.19,1.79,3.35h0c1.38,3.13,2.15,6.58,2.15,10.21Z"/>
    <path class="cls-2" d="m255.07,187.29c0,13.98-11.32,25.3-25.3,25.3-4.96,0-9.58-1.43-13.48-3.89-4.15-2.62-7.49-6.41-9.54-10.92-.32-.69-.61-1.4-.86-2.13-.92-2.62-1.41-5.43-1.41-8.37,0-10.82,6.79-20.06,16.35-23.67,2.78-1.05,5.8-1.63,8.95-1.63,1.59,0,3.16.15,4.66.43,1.04.19,2.07.45,3.06.77,10.2,3.26,17.58,12.81,17.58,24.09Z"/>
    <path class="cls-2" d="m185.71,173.74c9.2-2.56,17.94-.99,22.52.27"/>
  </g>
  <g id="Yeux">
    <rect x="159" y="179" width="11" height="17" rx="5.5" ry="5.5"/>
    <rect x="224" y="179" width="11" height="17" rx="5.5" ry="5.5"/>
  </g>
  <g id="Nez">
    <circle class="cls-3" cx="190.65" cy="229.45" r="1.43"/>
    <circle class="cls-3" cx="202.08" cy="229.45" r="1.43"/>
  </g>
  <g id="Bouche">
    <path d="m217.76,267.45c0,4.65-1.55,8.93-4.15,12.36-3.74,4.94-9.68,8.14-16.35,8.14s-12.61-3.19-16.35-8.14c-2.6-3.43-4.15-7.72-4.15-12.36,0-11.32,9.18-20.5,20.5-20.5s20.5,9.18,20.5,20.5Z"/>
    <path class="cls-7" d="m213.61,279.81c-3.74,4.94-9.68,8.14-16.35,8.14s-12.61-3.19-16.35-8.14c3.27-4.05,9.37-6.77,16.35-6.77s13.08,2.72,16.35,6.77Z"/>
  </g>
</svg>