<?xml version="1.0" encoding="UTF-8"?>
<svg id="Leopold" xmlns="http://www.w3.org/2000/svg" viewBox="0 0 400 400">
  <defs>
    <style>
      .cls-1, .cls-2 {
        fill: #fff;
      }

      .cls-3 {
        fill: #fbc597;
      }

      .cls-4 {
        stroke: #996117;
      }

      .cls-4, .cls-5 {
        fill: none;
      }

      .cls-4, .cls-5, .cls-2 {
        stroke-miterlimit: 10;
        stroke-width: 3px;
      }

      .cls-6 {
        fill: #603d21;
      }

      .cls-5, .cls-2 {
        stroke: #000;
      }

      .cls-7 {
        fill: #fd989f;
      }

      .cls-8 {
        fill: #fdac89;
      }

      .cls-9 {
        fill: #e2004e;
      }
    </style>
  </defs>
  <path id="CheveuxCotes" class="cls-6" d="m142.13,115h126.06c15.03,0,27.23,12.2,27.23,27.23v43.23c0,12.85-10.43,23.28-23.28,23.28H126.7c-12.85,0-23.28-10.43-23.28-23.28v-31.76c0-21.36,17.34-38.7,38.7-38.7Z"/>
  <g id="OreilleD">
    <path class="cls-3" d="m280,235.75c.1,0,.21,0,.33,0,12.57,0,22.76-10.19,22.76-22.76,0-12.57-10.19-22.76-22.76-22.76-.11,0-.22,0-.33,0v12.36s0,20.8,0,20.8v12.36Z"/>
    <path class="cls-7" d="m280,202.6c.1,0,.21,0,.33,0,5.75,0,10.4,4.66,10.4,10.4s-4.66,10.4-10.4,10.4c-.11,0-.22,0-.33,0v-20.8Z"/>
  </g>
  <g id="OreilleG">
    <path class="cls-3" d="m119,223.4v-33.15c-.1,0-.21,0-.33,0-12.57,0-22.76,10.19-22.76,22.76s10.19,22.76,22.76,22.76c.11,0,.22,0,.33,0v-12.36Z"/>
    <path class="cls-7" d="m119,223.4c-.1,0-.21,0-.33,0-5.75,0-10.4-4.66-10.4-10.4s4.66-10.4,10.4-10.4c.11,0,.22,0,.33,0v20.8Z"/>
  </g>
  <g id="Visage">
    <path class="cls-3" d="m210.21,310h-21.43c-39.09,0-70.79-31.69-70.79-70.79v-51.59c0-34.59,28.04-62.63,62.63-62.63h37.74c34.59,0,62.63,28.04,62.63,62.63v51.59c0,39.09-31.69,70.79-70.79,70.79Z"/>
  </g>
  <g id="Cheveux">
    <path class="cls-6" d="m295,143c0,8-2.26,15.5-6.19,21.88h-68.99c-2.67,0-5.31-.15-7.9-.45-16.06-1.83-30.52-9.17-41.41-20.06-8.65-8.65-15.06-19.53-18.24-31.7h0c-.94-3.57-1.6-7.25-1.95-11,.3-.06.62-.11.94-.17,12.32-2.13,31.63-3.5,53.35-3.5,20.18,0,38.3,1.19,50.65,3.07,1.41.07,2.8.21,4.17.43,5.21.81,10.11,2.59,14.51,5.14,12.57,7.28,21.06,20.88,21.06,36.36Z"/>
    <path class="cls-4" d="m281.89,137.05h0c0-11.97-8.63-21.77-19.19-21.77"/>
    <path class="cls-4" d="m118.39,144.28h0c-1.36-6.46,3.53-13.01,10.87-14.56"/>
  </g>
  <g id="Lunetters">
    <path class="cls-5" d="m194.12,191.2v.07c0,7.69-3.15,14.68-8.22,19.75-5.07,5.07-12.06,8.21-19.75,8.21h-24.71c-4.76,0-8.81-3.16-10.17-7.48-.31-1-.48-2.07-.48-3.17v-17.31c0-5.86,4.79-10.65,10.65-10.65h42.03c.52,0,1.03.04,1.52.11,5.12.74,9.1,5.16,9.13,10.47Z"/>
    <path class="cls-5" d="m235.01,180.73h24.63c5.86,0,10.65,4.79,10.65,10.65v17.31c0,5.86-4.79,10.65-10.65,10.65h-24.39c-7.47,0-14.27-2.97-19.3-7.78"/>
    <path class="cls-5" d="m217.94,180.73c-5.75,0-10.46,4.61-10.64,10.31-.29-.27-.61-.52-.96-.73-1.49-.99-3.43-1.58-5.55-1.58-2.7,0-5.11.97-6.67,2.47-.03-5.31-4.01-9.73-9.13-10.47h32.95Z"/>
    <path class="cls-2" d="m131.27,211.75c-.31-1-.48-2.07-.48-3.17v-17.31c0-5.86,4.79-10.65,10.65-10.65h20.96"/>
    <path class="cls-2" d="m235.01,180.73h-17.07c-5.75,0-10.46,4.61-10.64,10.31-.01.11-.01.23-.01.34,0,4.39,1.02,8.55,2.85,12.25.75,1.53,1.64,2.99,2.65,4.35.82,1.12,1.73,2.17,2.71,3.15.15.15.3.29.45.43"/>
  </g>
  <g id="Yeux">
    <rect x="159" y="191" width="11" height="17" rx="5.5" ry="5.5"/>
    <rect x="231" y="191" width="11" height="17" rx="5.5" ry="5.5"/>
  </g>
  <g id="Nez">
    <circle class="cls-8" cx="194.5" cy="228.5" r="3.5"/>
    <circle class="cls-8" cx="208.5" cy="228.5" r="3.5"/>
  </g>
  <g id="Bouche">
    <path d="m228.43,264.55c0,7.44-2.91,14.21-7.64,19.22-5.11,5.41-12.34,8.78-20.36,8.78s-15.25-3.37-20.36-8.78c-4.73-5.01-7.64-11.78-7.64-19.22,0-5.95,1.86-11.46,5.03-16h45.94c3.17,4.54,5.03,10.05,5.03,16Z"/>
    <rect class="cls-1" x="172.43" y="248.55" width="56" height="16"/>
    <path class="cls-9" d="m220.79,283.77c-5.11,5.41-12.34,8.78-20.36,8.78s-15.25-3.37-20.36-8.78c3.84-4.29,11.52-7.22,20.36-7.22s16.52,2.93,20.36,7.22Z"/>
  </g>
</svg>