<?xml version="1.0" encoding="UTF-8"?>
<svg id="Maxime" xmlns="http://www.w3.org/2000/svg" viewBox="0 0 400 400">
  <defs>
    <style>
      .cls-1 {
        fill: #fff;
      }

      .cls-2 {
        stroke: #603d21;
      }

      .cls-2, .cls-3 {
        fill: none;
        stroke-miterlimit: 10;
        stroke-width: 3px;
      }

      .cls-4 {
        fill: #fbc597;
      }

      .cls-5 {
        fill: #fd989f;
      }

      .cls-6 {
        fill: #ae8420;
      }

      .cls-7 {
        fill: #fdac89;
      }

      .cls-3 {
        stroke: #daaa01;
      }

      .cls-8 {
        fill: #e2004e;
      }
    </style>
  </defs>
  <path id="CheveuxCotes" class="cls-6" d="m124.01,141.91h154.47c12.85,0,23.28,10.43,23.28,23.28v46.81c0,15.03-12.2,27.23-27.23,27.23H127.97c-15.03,0-27.23-12.2-27.23-27.23v-46.81c0-12.85,10.43-23.28,23.28-23.28Z" transform="translate(402.49 381.14) rotate(-180)"/>
  <g id="OreilleG">
    <path class="cls-4" d="m112.87,232.61v-33.15c-.1,0-.21,0-.33,0-12.57,0-22.76,10.19-22.76,22.76s10.19,22.76,22.76,22.76c.11,0,.22,0,.33,0v-12.36Z"/>
    <path class="cls-5" d="m112.87,232.61c-.1,0-.21,0-.33,0-5.75,0-10.4-4.66-10.4-10.4s4.66-10.4,10.4-10.4c.11,0,.22,0,.33,0v20.8Z"/>
  </g>
  <g id="OreilleD">
    <path class="cls-4" d="m291.91,244.97c.1,0,.21,0,.33,0,12.57,0,22.76-10.19,22.76-22.76s-10.19-22.76-22.76-22.76c-.11,0-.22,0-.33,0v12.36s0,20.8,0,20.8v12.36Z"/>
    <path class="cls-5" d="m291.91,211.82c.1,0,.21,0,.33,0,5.75,0,10.4,4.66,10.4,10.4s-4.66,10.4-10.4,10.4c-.11,0-.22,0-.33,0v-20.8Z"/>
  </g>
  <g id="Visage">
    <path class="cls-4" d="m202.04,319h0c-50.46,0-91.74-41.28-91.74-91.74v-25.09c0-44.55,36.45-81.01,81.01-81.01h21.46c44.55,0,81.01,36.45,81.01,81.01v25.09c0,50.46-41.28,91.74-91.74,91.74Z"/>
  </g>
  <g id="Cheveux">
    <path class="cls-6" d="m138.21,102.02h90.97c12.76,0,23.12,10.36,23.12,23.12v6.06c0,12.07-9.8,21.88-21.88,21.88h-93.45c-12.07,0-21.88-9.8-21.88-21.88v-6.06c0-12.76,10.36-23.12,23.12-23.12Z"/>
    <rect class="cls-6" x="241.32" y="122.55" width="39.89" height="39.89" rx="19.94" ry="19.94"/>
    <path class="cls-3" d="m124.51,127.96h0c0-10.43,8.53-18.96,18.96-18.96"/>
    <path class="cls-3" d="m251.61,142.44h0c0-5.16,4.23-9.39,9.39-9.39"/>
  </g>
  <g id="Yeux">
    <circle cx="161.51" cy="206.32" r="7.86"/>
    <circle cx="243.51" cy="206.32" r="7.86"/>
  </g>
  <g id="Lunettes">
    <path class="cls-1" d="m170.71,176.43l-36.49,46.59c-1.08-1.79-1.97-3.7-2.68-5.7-1.17-3.3-1.8-6.85-1.8-10.55,0-13.59,8.55-25.19,20.56-29.7,3.47-1.31,7.24-2.02,11.17-2.02,3.21,0,6.32.48,9.24,1.38Z"/>
    <path class="cls-1" d="m249.36,175.59l-34.72,44.34c-.4-.87-.76-1.76-1.08-2.67-1.15-3.28-1.77-6.81-1.77-10.49,0-13.57,8.52-25.15,20.5-29.68,3.49-1.32,7.27-2.04,11.22-2.04,2,0,3.96.19,5.85.54Z"/>
    <path class="cls-2" d="m193.19,206.77c0,5.27-1.28,10.24-3.55,14.61-5.29,10.17-15.92,17.12-28.17,17.12-6.21,0-12-1.78-16.89-4.86-4.24-2.67-7.8-6.31-10.36-10.62-1.08-1.79-1.97-3.7-2.68-5.7-1.17-3.3-1.8-6.85-1.8-10.55,0-13.59,8.55-25.19,20.56-29.7,3.47-1.31,7.24-2.02,11.17-2.02,3.21,0,6.32.48,9.24,1.38.16.05.32.1.48.15,7.12,2.28,13.13,7.01,17.07,13.19.85,1.33,1.6,2.74,2.24,4.2h0c1.73,3.93,2.69,8.25,2.69,12.8Z"/>
    <path class="cls-2" d="m275.24,206.77c0,17.53-14.2,31.73-31.73,31.73-6.22,0-12.01-1.79-16.91-4.88-5.21-3.28-9.39-8.04-11.96-13.69-.4-.87-.76-1.76-1.08-2.67-1.15-3.28-1.77-6.81-1.77-10.49,0-13.57,8.52-25.15,20.5-29.68,3.49-1.32,7.27-2.04,11.22-2.04,2,0,3.96.19,5.85.54,1.31.24,2.59.57,3.84.97,12.79,4.09,22.04,16.07,22.04,30.21Z"/>
    <path class="cls-2" d="m188.26,189.77c11.54-3.21,22.49-1.24,28.25.34"/>
  </g>
  <g id="Bouche">
    <path d="m230,273c0,7.44-2.91,14.21-7.64,19.22-5.11,5.41-12.34,8.78-20.36,8.78s-15.25-3.37-20.36-8.78c-4.73-5.01-7.64-11.78-7.64-19.22,0-5.95,1.86-11.46,5.03-16h45.94c3.17,4.54,5.03,10.05,5.03,16Z"/>
    <rect class="cls-1" x="174" y="257" width="56" height="16"/>
    <path class="cls-8" d="m222.36,292.22c-5.11,5.41-12.34,8.78-20.36,8.78s-15.25-3.37-20.36-8.78c3.84-4.29,11.52-7.22,20.36-7.22s16.52,2.93,20.36,7.22Z"/>
  </g>
  <g id="Nez">
    <circle class="cls-7" cx="195.5" cy="242.5" r="3.5"/>
    <circle class="cls-7" cx="209.5" cy="242.5" r="3.5"/>
  </g>
</svg>