<?xml version="1.0" encoding="UTF-8"?>
<svg id="Oliventhan" xmlns="http://www.w3.org/2000/svg" viewBox="0 0 400 400">
  <defs>
    <style>
      .cls-1 {
        fill: #fff;
      }

      .cls-2 {
        stroke: #000;
      }

      .cls-2, .cls-3 {
        fill: none;
        stroke-miterlimit: 10;
        stroke-width: 3px;
      }

      .cls-3 {
        stroke: #9d968c;
      }

      .cls-4 {
        fill: #6d3e1c;
      }

      .cls-5 {
        fill: #e2004e;
      }

      .cls-6 {
        fill: #fd8e9f;
      }
    </style>
  </defs>
  <g id="CheveuxCotes">
    <rect id="CheveuxCotes-2" data-name="CheveuxCotes" x="110.76" y="115" width="187.14" height="89.89" rx="9.78" ry="9.78"/>
    <path class="cls-3" d="m284.73,120h0c4.33,0,7.88,3.77,7.88,8.38"/>
  </g>
  <path id="Visage" class="cls-4" d="m152.81,126.32h103.05c14.53,0,26.33,11.8,26.33,26.33v75.81c0,42.97-34.89,77.86-77.86,77.86h0c-42.97,0-77.86-34.89-77.86-77.86v-75.81c0-14.53,11.8-26.33,26.33-26.33Z"/>
  <g id="OreilleG">
    <path class="cls-4" d="m126.48,211.82v-31.21c-.1,0-.2,0-.31,0-11.83,0-21.43,9.59-21.43,21.43s9.59,21.43,21.43,21.43c.1,0,.21,0,.31,0v-11.63Z"/>
    <path class="cls-6" d="m126.48,211.82c-.1,0-.2,0-.31,0-5.41,0-9.8-4.38-9.8-9.8s4.38-9.8,9.8-9.8c.1,0,.21,0,.31,0v19.58Z"/>
  </g>
  <g id="OreilleD">
    <path class="cls-4" d="m282.19,223.46c.1,0,.2,0,.31,0,11.83,0,21.43-9.59,21.43-21.43,0-11.83-9.59-21.43-21.43-21.43-.1,0-.21,0-.31,0v11.63s0,19.58,0,19.58v11.63Z"/>
    <path class="cls-6" d="m282.19,192.24c.1,0,.2,0,.31,0,5.41,0,9.8,4.38,9.8,9.8s-4.38,9.8-9.8,9.8c-.1,0-.21,0-.31,0v-19.58Z"/>
  </g>
  <g id="OeilG">
    <circle cx="175.76" cy="191.32" r="7.86"/>
    <rect x="149.33" y="168.39" width="44.29" height="12.22" rx="4" ry="4"/>
  </g>
  <g id="OeilD">
    <circle cx="235.76" cy="191.32" r="7.86"/>
    <rect x="217.9" y="168.39" width="44.29" height="12.22" rx="4" ry="4" transform="translate(480.1 348.99) rotate(-180)"/>
  </g>
  <g id="Nez">
    <circle class="cls-2" cx="200.05" cy="221.32" r="1.43"/>
    <circle class="cls-2" cx="211.48" cy="221.32" r="1.43"/>
  </g>
  <g id="Bouche">
    <path d="m234.26,254.68c0,7.44-2.91,14.21-7.64,19.22-5.11,5.41-12.34,8.78-20.36,8.78s-15.25-3.37-20.36-8.78c-4.73-5.01-7.64-11.78-7.64-19.22,0-5.95,1.86-11.46,5.03-16h45.94c3.17,4.54,5.03,10.05,5.03,16Z"/>
    <rect class="cls-1" x="178.26" y="238.68" width="56" height="16"/>
    <path class="cls-5" d="m226.62,273.9c-5.11,5.41-12.34,8.78-20.36,8.78s-15.25-3.37-20.36-8.78c3.84-4.29,11.52-7.22,20.36-7.22s16.52,2.93,20.36,7.22Z"/>
  </g>
  <g id="Cheveux">
    <path d="m134.96,94h135.04c6.62,0,12,5.38,12,12v45H111c-6.62,0-12-5.38-12-12v-9.04c0-19.85,16.11-35.96,35.96-35.96Z"/>
    <path class="cls-3" d="m113.71,122.77h0c0-9.04,7.39-16.43,16.43-16.43"/>
  </g>
</svg>