<?xml version="1.0" encoding="UTF-8"?>
<svg id="Paul" xmlns="http://www.w3.org/2000/svg" viewBox="0 0 400 400">
  <defs>
    <style>
      .cls-1 {
        fill: #fbc597;
      }

      .cls-2, .cls-3, .cls-4, .cls-5 {
        stroke-miterlimit: 10;
        stroke-width: 3px;
      }

      .cls-2, .cls-3, .cls-5 {
        stroke: #000;
      }

      .cls-3, .cls-4 {
        fill: none;
      }

      .cls-6 {
        fill: #fd989f;
      }

      .cls-7 {
        fill: #ae8420;
      }

      .cls-4 {
        stroke: #daaa01;
      }

      .cls-8 {
        fill: #e2004e;
      }

      .cls-5 {
        fill: #fff;
      }
    </style>
  </defs>
  <path id="CheveuxCotes" class="cls-7" d="m134.28,130.27h133.45c12.85,0,23.28,10.43,23.28,23.28v24.21c0,15.03-12.2,27.23-27.23,27.23h-125.53c-15.03,0-27.23-12.2-27.23-27.23v-24.21c0-12.85,10.43-23.28,23.28-23.28Z" transform="translate(402 335.27) rotate(-180)"/>
  <g id="OreilleD">
    <path class="cls-1" d="m274,227.33c.1,0,.21,0,.33,0,12.57,0,22.76-10.19,22.76-22.76,0-12.57-10.19-22.76-22.76-22.76-.11,0-.22,0-.33,0v12.36s0,20.8,0,20.8v12.36Z"/>
    <path class="cls-6" d="m274,194.18c.1,0,.21,0,.33,0,5.75,0,10.4,4.66,10.4,10.4,0,5.75-4.66,10.4-10.4,10.4-.11,0-.22,0-.33,0v-20.8Z"/>
  </g>
  <g id="OreilleG">
    <path class="cls-1" d="m127,214.97v-33.15c-.1,0-.21,0-.33,0-12.57,0-22.76,10.19-22.76,22.76s10.19,22.76,22.76,22.76c.11,0,.22,0,.33,0v-12.36Z"/>
    <path class="cls-6" d="m127,214.97c-.1,0-.21,0-.33,0-5.75,0-10.4-4.66-10.4-10.4s4.66-10.4,10.4-10.4c.11,0,.22,0,.33,0v20.8Z"/>
  </g>
  <path id="Visage" class="cls-1" d="m170.09,114h60.83c24.33,0,44.09,19.75,44.09,44.09v85.57c0,34.96-28.38,63.34-63.34,63.34h-22.32c-34.96,0-63.34-28.38-63.34-63.34v-85.57c0-24.33,19.75-44.09,44.09-44.09Z"/>
  <g id="Cheveux">
    <path class="cls-7" d="m136.04,70.35h146.97c12.14,0,21.99,9.85,21.99,21.99h0c0,35.57-28.88,64.45-64.45,64.45h-46.15c-39.96,0-72.4-32.44-72.4-72.4h0c0-7.75,6.29-14.04,14.04-14.04Z" transform="translate(427 227.13) rotate(-180)"/>
    <path class="cls-4" d="m184,105.67h0c16.13,0,29.33,13.2,29.33,29.33"/>
    <path class="cls-4" d="m231.33,84h0c29.7,0,54,24.3,54,54"/>
  </g>
  <g id="Lunettes">
    <path class="cls-5" d="m143.35,202.5c-.16-1.12-.19-2.28-.09-3.46l1.25-13.96c.08-.92.31-1.79.65-2.6.9-2.15,2.62-3.85,4.74-4.74,1.28-.55,2.71-.79,4.19-.66l13.65,1.23"/>
    <path class="cls-3" d="m167.74,178.31l1.79.16,14.44,1.3c2.04.18,3.92.87,5.53,1.92.85.55,1.62,1.2,2.29,1.94,1.33,1.43,2.31,3.17,2.83,5.08.01.02.01.04.02.06.15.56.26,1.14.33,1.73.1.81.12,1.64.04,2.49l-.21,2.31c-1.16,12.87-12.63,22.46-25.51,21.3l-12.29-1.1c-6.49-.59-11.68-5.23-13.29-11.21-.16-.58-.28-1.18-.36-1.79"/>
    <path class="cls-5" d="m208.89,201.51c-.75-1.95-1.24-4.03-1.44-6.21l-.2-2.31c-.08-.85-.06-1.68.04-2.49.07-.61.19-1.22.35-1.8.1-.35.21-.7.34-1.04.57-1.56,1.47-2.97,2.6-4.15.73-.77,1.57-1.45,2.49-2.01.66-.41,1.36-.75,2.09-1.02.99-.37,2.04-.61,3.13-.71l17.54-1.58"/>
    <path class="cls-3" d="m235.83,178.19l2.18-.2,10.15-.91c4.84-.43,9.15,3.17,9.58,8l1.26,13.96c.74,8.31-5.44,15.71-13.75,16.46l-12.29,1.1c-9.23.83-17.74-3.86-22.23-11.33-.72-1.19-1.34-2.44-1.84-3.76"/>
    <path class="cls-2" d="m210.58,183.51c-1.38,1.44-2.41,3.22-2.94,5.19-.16.42-.28.86-.35,1.3h-12.32c-.07-.42-.18-.83-.33-1.23-.01-.02-.01-.04-.02-.06-.52-1.91-1.5-3.65-2.83-5.08l18.79-.12Z"/>
  </g>
  <g id="Yeux">
    <circle cx="173.06" cy="197.21" r="7.86"/>
    <circle cx="231.06" cy="197.21" r="7.86"/>
  </g>
  <g id="Bouche">
    <path d="m222,270.5c0,4.65-1.55,8.93-4.15,12.36-3.74,4.94-9.68,8.14-16.35,8.14s-12.61-3.19-16.35-8.14c-2.6-3.43-4.15-7.72-4.15-12.36,0-11.32,9.18-20.5,20.5-20.5s20.5,9.18,20.5,20.5Z"/>
    <path class="cls-8" d="m217.85,282.86c-3.74,4.94-9.68,8.14-16.35,8.14s-12.61-3.19-16.35-8.14c3.27-4.05,9.37-6.77,16.35-6.77s13.08,2.72,16.35,6.77Z"/>
  </g>
  <g id="Nez">
    <circle class="cls-3" cx="197.69" cy="222.85" r=".81"/>
    <circle class="cls-3" cx="204.19" cy="222.85" r=".81"/>
  </g>
</svg>