<?xml version="1.0" encoding="UTF-8"?>
<svg id="Sofiane" xmlns="http://www.w3.org/2000/svg" viewBox="0 0 400 400">
  <defs>
    <style>
      .cls-1 {
        fill: none;
        stroke: #996117;
        stroke-miterlimit: 10;
        stroke-width: 3px;
      }

      .cls-2 {
        fill: #603d21;
      }

      .cls-3 {
        fill: #e5b188;
      }

      .cls-4 {
        fill: #fd8e9f;
      }
    </style>
  </defs>
  <g id="Visage">
    <path class="cls-3" d="m277.49,151.44v75.81c0,28.07-15.06,52.8-37.5,66.5-11.79,7.2-25.61,11.36-40.36,11.36-13.94,0-27.05-3.71-38.39-10.19-23.53-13.44-39.47-38.79-39.47-67.67v-75.81c0-14.49,11.85-26.33,26.33-26.33h103.06c14.48,0,26.33,11.84,26.33,26.33Z"/>
  </g>
  <g id="OreilleG">
    <path class="cls-3" d="m121.77,210.61v-31.21c-.1,0-.2,0-.31,0-11.83,0-21.43,9.59-21.43,21.43s9.59,21.43,21.43,21.43c.1,0,.21,0,.31,0v-11.63Z"/>
    <path class="cls-4" d="m121.77,210.61c-.1,0-.2,0-.31,0-5.41,0-9.8-4.38-9.8-9.8s4.38-9.8,9.8-9.8c.1,0,.21,0,.31,0v19.58Z"/>
  </g>
  <g id="OreilleD">
    <path class="cls-3" d="m277.49,222.24c.1,0,.2,0,.31,0,11.83,0,21.43-9.59,21.43-21.43,0-11.83-9.59-21.43-21.43-21.43-.1,0-.21,0-.31,0v11.63s0,19.58,0,19.58v11.63Z"/>
    <path class="cls-4" d="m277.49,191.03c.1,0,.2,0,.31,0,5.41,0,9.8,4.38,9.8,9.8s-4.38,9.8-9.8,9.8c-.1,0-.21,0-.31,0v-19.58Z"/>
  </g>
  <g id="OeilG">
    <circle cx="171.06" cy="190.11" r="7.86"/>
    <rect x="144.63" y="167.18" width="44.29" height="12.22" rx="4" ry="4"/>
  </g>
  <g id="OeilD">
    <circle cx="231.06" cy="190.11" r="7.86"/>
    <rect x="213.2" y="167.18" width="44.29" height="12.22" rx="4" ry="4" transform="translate(470.69 346.57) rotate(-180)"/>
  </g>
  <path id="Bouche" class="cls-4" d="m202.27,260.1c-3.48-.34-30.64-2.77-27.9,4.06,3.01,7.53,25.64,7.47,27.9,7.44,2.26.03,24.89.09,27.9-7.44,2.73-6.83-24.43-4.4-27.9-4.06Z"/>
  <g id="Cheveux">
    <rect class="cls-2" x="112" y="123" width="21" height="59" rx="10.5" ry="10.5"/>
    <rect class="cls-2" x="267" y="123" width="21" height="59" rx="10.5" ry="10.5"/>
    <path class="cls-2" d="m134.5,103h26c5.8,0,10.5,4.7,10.5,10.5v12c0,12.42-10.08,22.5-22.5,22.5h-14c-12.42,0-22.5-10.08-22.5-22.5h0c0-12.42,10.08-22.5,22.5-22.5Z" transform="translate(283 251) rotate(-180)"/>
    <path class="cls-2" d="m250.5,103h15c12.42,0,22.5,10.08,22.5,22.5v12c0,5.8-4.7,10.5-10.5,10.5h-27c-12.42,0-22.5-10.08-22.5-22.5h0c0-12.42,10.08-22.5,22.5-22.5Z"/>
    <rect class="cls-2" x="122" y="103" width="155" height="45" rx="12" ry="12"/>
    <path class="cls-1" d="m120.22,127.79h0c0-9.04,7.39-16.43,16.43-16.43"/>
    <path class="cls-1" d="m279.65,127.79h0c0-9.04-7.39-16.43-16.43-16.43"/>
  </g>
  <path id="Nez" class="cls-4" d="m201.5,202h0c5.8,0,10.5,4.7,10.5,10.5v22.49c0,2.77-2.25,5.01-5.01,5.01h-10.98c-2.77,0-5.01-2.25-5.01-5.01v-22.49c0-5.8,4.7-10.5,10.5-10.5Z"/>
  <path id="Barbe" d="m239.99,293.75c-11.79,7.2-25.61,11.36-40.36,11.36-13.94,0-27.05-3.71-38.39-10.19,1.73-4.03,13.06-7.35,28.17-8.49.27-.69.69-1.31,1.2-1.82.99-.99,2.37-1.61,3.89-1.61h15c2.37,0,4.39,1.5,5.16,3.6,12.62,1.14,22.27,3.83,25.33,7.15Z"/>
  <path id="Moustache" d="m202.45,255.68c-1.62.16-14.26,1.29-12.99-1.89,1.4-3.51,11.94-3.48,12.99-3.46,1.05-.01,11.59-.04,12.99,3.46,1.27,3.18-11.37,2.05-12.99,1.89Z"/>
</svg>