<?xml version="1.0" encoding="UTF-8"?>
<svg id="Youssef" xmlns="http://www.w3.org/2000/svg" viewBox="0 0 400 400">
  <defs>
    <style>
      .cls-1 {
        fill: none;
        stroke: #996117;
        stroke-miterlimit: 10;
        stroke-width: 3px;
      }

      .cls-2 {
        fill: #603d21;
      }

      .cls-3 {
        fill: #e5b188;
      }

      .cls-4 {
        fill: #fd8e9f;
      }
    </style>
  </defs>
  <g id="Visage">
    <path class="cls-3" d="m286.07,142.17v75.81c0,28.07-15.06,52.8-37.5,66.5-11.79,7.2-25.61,11.36-40.36,11.36-13.94,0-27.05-3.71-38.39-10.19-23.53-13.44-39.47-38.79-39.47-67.67v-75.81c0-14.49,11.85-26.33,26.33-26.33h103.06c14.48,0,26.33,11.84,26.33,26.33Z"/>
  </g>
  <g id="OreilleG">
    <path class="cls-3" d="m130.36,201.34v-31.21c-.1,0-.2,0-.31,0-11.83,0-21.43,9.59-21.43,21.43s9.59,21.43,21.43,21.43c.1,0,.21,0,.31,0v-11.63Z"/>
    <path class="cls-4" d="m130.36,201.34c-.1,0-.2,0-.31,0-5.41,0-9.8-4.38-9.8-9.8s4.38-9.8,9.8-9.8c.1,0,.21,0,.31,0v19.58Z"/>
  </g>
  <g id="OreilleD">
    <path class="cls-3" d="m286.07,212.98c.1,0,.2,0,.31,0,11.83,0,21.43-9.59,21.43-21.43s-9.59-21.43-21.43-21.43c-.1,0-.21,0-.31,0v11.63s0,19.58,0,19.58v11.63Z"/>
    <path class="cls-4" d="m286.07,181.76c.1,0,.2,0,.31,0,5.41,0,9.8,4.38,9.8,9.8s-4.38,9.8-9.8,9.8c-.1,0-.21,0-.31,0v-19.58Z"/>
  </g>
  <g id="OeilG">
    <circle cx="179.64" cy="180.84" r="7.86"/>
    <rect x="153.21" y="157.91" width="44.29" height="12.22" rx="4" ry="4"/>
  </g>
  <g id="OeilD">
    <circle cx="239.64" cy="180.84" r="7.86"/>
    <rect x="221.78" y="157.91" width="44.29" height="12.22" rx="4" ry="4" transform="translate(487.85 328.03) rotate(-180)"/>
  </g>
  <path id="Bouche" class="cls-4" d="m210.85,250.83c-3.48-.34-30.64-2.77-27.9,4.06,3.01,7.53,25.64,7.47,27.9,7.44,2.26.03,24.89.09,27.9-7.44,2.73-6.83-24.43-4.4-27.9-4.06Z"/>
  <g id="Cheveux">
    <rect class="cls-2" x="120.58" y="113.73" width="21" height="59" rx="10.5" ry="10.5"/>
    <rect class="cls-2" x="275.58" y="113.73" width="21" height="59" rx="10.5" ry="10.5"/>
    <g id="Boucles">
      <circle class="cls-2" cx="136" cy="118" r="11"/>
      <circle class="cls-2" cx="150" cy="111" r="11"/>
      <circle class="cls-2" cx="165" cy="109" r="11"/>
      <circle class="cls-2" cx="133" cy="114" r="11"/>
      <circle class="cls-2" cx="180" cy="109" r="11"/>
      <circle class="cls-2" cx="193" cy="108" r="11"/>
      <circle class="cls-2" cx="205" cy="109" r="11"/>
      <circle class="cls-2" cx="217" cy="108" r="11"/>
      <circle class="cls-2" cx="232" cy="109" r="11"/>
      <circle class="cls-2" cx="245" cy="109" r="11"/>
      <circle class="cls-2" cx="261" cy="109" r="11"/>
      <circle class="cls-2" cx="277" cy="113" r="11"/>
    </g>
    <path class="cls-2" d="m141.95,83h28.68c3.7,0,6.7,3,6.7,6.7v7.66c0,7.93-6.44,14.37-14.37,14.37h-21.02c-7.93,0-14.37-6.44-14.37-14.37h0c0-7.93,6.44-14.37,14.37-14.37Z" transform="translate(304.92 194.73) rotate(180)"/>
    <path class="cls-2" d="m239.77,83h21.86c7.93,0,14.37,6.44,14.37,14.37v7.66c0,3.7-3,6.7-6.7,6.7h-29.53c-7.93,0-14.37-6.44-14.37-14.37h0c0-7.93,6.44-14.37,14.37-14.37Z"/>
    <rect class="cls-2" x="136.01" y="83" width="130.71" height="28.73" rx="12" ry="12"/>
    <path class="cls-1" d="m134.51,98.83h0c0-5.77,6.23-10.49,13.85-10.49"/>
    <path class="cls-1" d="m282,114.96h0c0-3.83-3.15-6.96-7-6.96"/>
  </g>
  <path id="Nez" class="cls-4" d="m210.08,192.73h0c5.8,0,10.5,4.7,10.5,10.5v22.49c0,2.77-2.25,5.01-5.01,5.01h-10.98c-2.77,0-5.01-2.25-5.01-5.01v-22.49c0-5.8,4.7-10.5,10.5-10.5Z"/>
</svg>